<svg width="256" height="256" viewBox="0 0 256 256" fill="none" xmlns="http://www.w3.org/2000/svg">
<rect x="28" y="28" width="200" height="200" rx="50" fill="url(#paint0_linear_251_14)"/>
<path d="M97.6588 174.875C73.9278 174.875 54.69 155.637 54.69 131.906V128C54.69 102.112 75.6767 81.125 101.565 81.125H154.49C177.891 81.125 197.708 98.3835 200.921 121.563C204.828 149.741 182.934 174.875 154.486 174.875C153.361 174.875 152.737 174.875 152.737 174.875" stroke="#F5F5F5" stroke-width="12" stroke-linecap="round"/>
<path d="M107.846 164.125C112.663 159.624 118.733 157.159 125.001 157.159C131.27 157.159 137.34 159.624 142.156 164.125M99.22 152.992C106.341 145.949 115.508 142.062 125.001 142.062C134.494 142.062 143.661 145.949 150.783 152.992M116.546 174.875C119.019 172.903 121.979 171.844 125.013 171.844C128.048 171.844 131.007 172.903 133.481 174.875" stroke="#F5F5F5" stroke-width="8" stroke-linecap="round" stroke-linejoin="round"/>
<defs>
<linearGradient id="paint0_linear_251_14" x1="35.0313" y1="37.7656" x2="207.297" y2="196.75" gradientUnits="userSpaceOnUse">
<stop stop-color="#FE9556"/>
<stop offset="1" stop-color="#FA5599"/>
</linearGradient>
</defs>
</svg>
