<svg width="161" height="160" viewBox="0 0 161 160" fill="none" xmlns="http://www.w3.org/2000/svg">
<path d="M49.6587 126.875C25.9277 126.875 6.68994 107.637 6.68994 83.9062V80C6.68994 54.1117 27.6766 33.125 53.5649 33.125H106.49C129.891 33.125 149.708 50.3835 152.921 73.5628C156.828 101.741 134.934 126.875 106.486 126.875C105.361 126.875 104.737 126.875 104.737 126.875" stroke="black" stroke-width="12" stroke-linecap="round"/>
<path d="M60.8462 116.125C65.6627 111.624 71.7328 109.159 78.0012 109.159C84.2696 109.159 90.3398 111.624 95.1562 116.125M52.22 104.992C59.3413 97.9485 68.5082 94.0625 78.0012 94.0625C87.4942 94.0625 96.6611 97.9485 103.782 104.992M69.5455 126.875C72.0193 124.903 74.9787 123.844 78.0133 123.844C81.0479 123.844 84.0074 124.903 86.4812 126.875" stroke="black" stroke-width="8" stroke-linecap="round" stroke-linejoin="round"/>
</svg>
