<svg width="160" height="160" viewBox="0 0 160 160" fill="none" xmlns="http://www.w3.org/2000/svg">
<path d="M48.9688 126.875C25.2378 126.875 6 107.637 6 83.9062V80C6 54.1117 26.9867 33.125 52.875 33.125H105.8C129.201 33.125 149.018 50.3835 152.231 73.5628C156.138 101.741 134.244 126.875 105.796 126.875C104.671 126.875 104.047 126.875 104.047 126.875" stroke="white" stroke-width="12" stroke-linecap="round"/>
<path d="M60.1563 116.125C64.9727 111.624 71.0429 109.159 77.3113 109.159C83.5797 109.159 89.6498 111.624 94.4663 116.125M51.53 104.992C58.6514 97.9485 67.8183 94.0625 77.3113 94.0625C86.8043 94.0625 95.9712 97.9485 103.093 104.992M68.8555 126.875C71.3294 124.903 74.2888 123.844 77.3234 123.844C80.358 123.844 83.3174 124.903 85.7912 126.875" stroke="white" stroke-width="8" stroke-linecap="round" stroke-linejoin="round"/>
</svg>
