<svg width="200" height="200" viewBox="0 0 200 200" fill="none" xmlns="http://www.w3.org/2000/svg">
<rect width="200" height="200" rx="50" fill="url(#paint0_linear_266_8)"/>
<path d="M69.6587 146.875C45.9277 146.875 26.6899 127.637 26.6899 103.906V100C26.6899 74.1117 47.6766 53.125 73.5649 53.125H126.49C149.891 53.125 169.708 70.3835 172.921 93.5628C176.828 121.741 154.934 146.875 126.486 146.875C125.361 146.875 124.737 146.875 124.737 146.875" stroke="#F5F5F5" stroke-width="12" stroke-linecap="round"/>
<path d="M79.8462 136.125C84.6627 131.624 90.7328 129.159 97.0012 129.159C103.27 129.159 109.34 131.624 114.156 136.125M71.22 124.992C78.3413 117.949 87.5082 114.062 97.0012 114.062C106.494 114.062 115.661 117.949 122.782 124.992M88.5455 146.875C91.0193 144.903 93.9787 143.844 97.0133 143.844C100.048 143.844 103.007 144.903 105.481 146.875" stroke="#F5F5F5" stroke-width="8" stroke-linecap="round" stroke-linejoin="round"/>
<defs>
<linearGradient id="paint0_linear_266_8" x1="7.03125" y1="9.76562" x2="179.297" y2="168.75" gradientUnits="userSpaceOnUse">
<stop stop-color="#FE9556"/>
<stop offset="1" stop-color="#FA5599"/>
</linearGradient>
</defs>
</svg>
